<mxfile host="app.diagrams.net" modified="2020-11-02T07:34:40.446Z" agent="5.0 (Windows NT 10.0; Win64; x64) AppleWebKit/537.36 (KHTML, like Gecko) Chrome/86.0.4240.111 Safari/537.36" etag="7YgnKPzZWH5yzkFVwNLt" version="13.8.8" type="github">
  <diagram id="ShfnqmNN4cUQ0fv_p8tL" name="Page-1">
    <mxGraphModel dx="2249" dy="762" grid="1" gridSize="10" guides="1" tooltips="1" connect="1" arrows="1" fold="1" page="1" pageScale="1" pageWidth="827" pageHeight="1169" math="0" shadow="0">
      <root>
        <mxCell id="0" />
        <mxCell id="1" parent="0" />
        <mxCell id="9xlFXg57MbIlktrybgkb-1" value="&lt;font style=&quot;font-size: 17px&quot;&gt;&lt;b&gt;教师系统&lt;/b&gt;&lt;/font&gt;" style="rounded=0;whiteSpace=wrap;html=1;fillColor=#ffe6cc;strokeColor=#d79b00;" vertex="1" parent="1">
          <mxGeometry x="30" y="40" width="770" height="60" as="geometry" />
        </mxCell>
        <mxCell id="9xlFXg57MbIlktrybgkb-2" value="&lt;b&gt;&lt;font style=&quot;font-size: 14px&quot;&gt;教师组件&lt;/font&gt;&lt;/b&gt;" style="text;html=1;align=center;verticalAlign=middle;resizable=0;points=[];autosize=1;" vertex="1" parent="1">
          <mxGeometry x="-75" y="60" width="70" height="20" as="geometry" />
        </mxCell>
        <mxCell id="9xlFXg57MbIlktrybgkb-4" value="&lt;span style=&quot;font-size: 14px&quot;&gt;&lt;b&gt;业务模块层（module）&lt;/b&gt;&lt;/span&gt;" style="text;html=1;align=center;verticalAlign=middle;resizable=0;points=[];autosize=1;" vertex="1" parent="1">
          <mxGeometry x="-125" y="170" width="160" height="20" as="geometry" />
        </mxCell>
        <mxCell id="9xlFXg57MbIlktrybgkb-5" value="&lt;b&gt;教师 AModule&lt;/b&gt;" style="rounded=0;whiteSpace=wrap;html=1;fillColor=#dae8fc;strokeColor=#6c8ebf;" vertex="1" parent="1">
          <mxGeometry x="35" y="150" width="120" height="60" as="geometry" />
        </mxCell>
        <mxCell id="9xlFXg57MbIlktrybgkb-6" value="&lt;b&gt;教师 BModule&lt;/b&gt;&amp;nbsp;" style="rounded=0;whiteSpace=wrap;html=1;fillColor=#dae8fc;strokeColor=#6c8ebf;fontStyle=1" vertex="1" parent="1">
          <mxGeometry x="250" y="150" width="120" height="60" as="geometry" />
        </mxCell>
        <mxCell id="9xlFXg57MbIlktrybgkb-8" value="&lt;b&gt;教师 XModule&lt;/b&gt;&amp;nbsp;" style="rounded=0;whiteSpace=wrap;html=1;fillColor=#dae8fc;strokeColor=#6c8ebf;fontStyle=1" vertex="1" parent="1">
          <mxGeometry x="490" y="150" width="120" height="60" as="geometry" />
        </mxCell>
      </root>
    </mxGraphModel>
  </diagram>
</mxfile>
